<svg xmlns="http://www.w3.org/2000/svg" viewBox="0 0 32 32" width="32" height="32">
  <defs>
    <linearGradient id="bg" x1="0" y1="0" x2="1" y2="1">
      <stop offset="0%" stop-color="#090d16" />
      <stop offset="100%" stop-color="#064e3b" />
    </linearGradient>
    <linearGradient id="accent" x1="0" y1="0" x2="1" y2="1">
      <stop offset="0%" stop-color="#34d399" />
      <stop offset="100%" stop-color="#10b981" />
    </linearGradient>
  </defs>
  <!-- Card Background -->
  <rect width="32" height="32" rx="8" fill="url(#bg)" />
  <rect x="0.5" y="0.5" width="31" height="31" rx="7.5" fill="none" stroke="#10b981" stroke-opacity="0.35" stroke-width="1" />
  
  <!-- "N" Monogram -->
  <path d="M 8.5 23 L 8.5 9 L 12 9 L 20 19 L 20 9 L 23.5 9 L 23.5 23 L 20 23 L 12 13 L 12 23 Z" fill="#ffffff" />
  
  <!-- Emerald Star Sparkle in Top Right -->
  <path d="M 24 5 C 24 6.5 24.5 7.5 26 7.5 C 24.5 7.5 24 8.5 24 10 C 24 8.5 23.5 7.5 22 7.5 C 23.5 7.5 24 6.5 24 5 Z" fill="url(#accent)" />
</svg>
